<svg xmlns="http://www.w3.org/2000/svg"  viewBox="0 0 64 64" width="64px" height="64px"><linearGradient id="W5HyH7nwsBqBtdVKV2aA4a" x1="32" x2="32" y1="7.055" y2="55.991" gradientUnits="userSpaceOnUse"><stop offset="0" stop-color="#1a6dff"/><stop offset="1" stop-color="#c822ff"/></linearGradient><path fill="url(#W5HyH7nwsBqBtdVKV2aA4a)" d="M40.001,43.496C39.822,43.189,39.493,43,39.138,43H5c-0.358,0-0.689,0.191-0.867,0.503	c-0.179,0.311-0.177,0.692,0.004,1.002l4.632,7.913c1.126,2.204,3.373,3.573,5.868,3.573h30.917c0.358,0,0.688-0.191,0.867-0.502	s0.177-0.693-0.004-1.002L40.001,43.496z M14.695,54.046c-1.736,0-3.363-1.007-4.174-2.589L6.743,45h31.82l5.312,9.046H14.695z M59.006,40.877L41.501,10.45c-1.111-2.094-3.273-3.396-5.643-3.396H26.6c-0.357,0-0.688,0.19-0.866,0.5	c-0.179,0.309-0.179,0.69,0,1l27.063,46.89c0.179,0.31,0.509,0.5,0.866,0.5s0.688-0.19,0.866-0.5l4.259-7.377	C59.683,46.565,60,45.769,60,44.296C60,43.065,59.646,41.867,59.006,40.877z M57.062,47.056l-3.399,5.889L28.331,9.055h7.527	c1.627,0,3.112,0.894,3.893,2.363l17.548,30.501C57.758,42.629,58,43.45,58,44.296C58,45.281,57.844,45.744,57.062,47.056z M10.078,38H34.27c0.354,0,0.681-0.187,0.86-0.491c0.181-0.304,0.187-0.681,0.016-0.99l-12.097-22c-0.352-0.639-1.4-0.637-1.752,0	l-12.096,22c-0.171,0.31-0.165,0.687,0.016,0.99C9.397,37.814,9.725,38,10.078,38z M22.174,17.076L32.579,36h-20.81L22.174,17.076z"/><linearGradient id="W5HyH7nwsBqBtdVKV2aA4b" x1="25.28" x2="25.28" y1="46.106" y2="51.254" gradientUnits="userSpaceOnUse"><stop offset="0" stop-color="#6dc7ff"/><stop offset="1" stop-color="#e6abff"/></linearGradient><path fill="url(#W5HyH7nwsBqBtdVKV2aA4b)" d="M12.223,50.406L10.231,47h27.185l2.914,4.992H14.633c-0.981,0-1.863-0.534-2.302-1.394	C12.297,50.533,12.261,50.469,12.223,50.406z"/><linearGradient id="W5HyH7nwsBqBtdVKV2aA4c" x1="43.898" x2="43.898" y1="11.055" y2="42.697" gradientUnits="userSpaceOnUse"><stop offset="0" stop-color="#6dc7ff"/><stop offset="1" stop-color="#e6abff"/></linearGradient><path fill="url(#W5HyH7nwsBqBtdVKV2aA4c)" d="M55.619,43.004c-0.028-0.043-0.055-0.087-0.081-0.132L38.017,12.415	c-0.017-0.029-0.033-0.059-0.049-0.089c-0.416-0.784-1.224-1.271-2.109-1.271h-4.064l21.868,37.89l1.668-2.888	C56,44.931,56,44.821,56,44.296C56,43.837,55.868,43.39,55.619,43.004z"/><linearGradient id="W5HyH7nwsBqBtdVKV2aA4d" x1="22.174" x2="22.174" y1="21.227" y2="31.894" gradientUnits="userSpaceOnUse"><stop offset="0" stop-color="#6dc7ff"/><stop offset="1" stop-color="#e6abff"/></linearGradient><polygon fill="url(#W5HyH7nwsBqBtdVKV2aA4d)" points="15.151,34 29.197,34 22.174,21.227"/></svg>